<svg width="640" height="384" viewBox="0 0 640 384" fill="none" xmlns="http://www.w3.org/2000/svg">
<path d="M0 64C0 28.7 28.7 0 64 0H576C611.3 0 640 28.7 640 64V320C640 355.3 611.3 384 576 384H64C28.7 384 0 355.3 0 320V64ZM320 64V320H576V64H320ZM178.3 111.9C175.1 104.7 167.9 100 160 100C152.1 100 144.9 104.7 141.7 111.9L77.7 255.9C73.2 266 77.8 277.8 87.9 282.3C98 286.8 109.8 282.2 114.3 272.1L123.2 252H196.8L205.7 272.1C210.2 282.2 222 286.7 232.1 282.3C242.2 277.9 246.7 266 242.3 255.9L178.3 111.9ZM160 169.2L179 212H141L160 169.2Z" fill="black"/>
<path d="M422.647 120V167.765M458.471 215.529H554C533.955 191.647 518.033 179.706 506.235 179.706M458.471 120V238.91C458.471 250.41 458.471 256.153 454.972 259.724C451.473 263.294 445.849 263.294 434.588 263.294H422.647M386.824 120V238.91C386.824 250.41 386.824 256.153 383.325 259.724C379.826 263.294 374.202 263.294 362.941 263.294H351" stroke="black" stroke-width="21" stroke-linecap="round" stroke-linejoin="round"/>
</svg>
